<svg xmlns="http://www.w3.org/2000/svg" version="1.1" xmlns:xlink="http://www.w3.org/1999/xlink" xmlns:svgjs="http://svgjs.dev/svgjs" width="2000" height="722" viewBox="0 0 2000 722"><g transform="matrix(1,0,0,1,-1.2121212121212466,-1.0812107474822596)"><svg viewBox="0 0 396 143" data-background-color="#ffffff" preserveAspectRatio="xMidYMid meet" height="722" width="2000" xmlns="http://www.w3.org/2000/svg" xmlns:xlink="http://www.w3.org/1999/xlink"><g id="tight-bounds" transform="matrix(1,0,0,1,0.2400000000000091,0.2141456189611688)"><svg viewBox="0 0 395.52 142.57152686607188" height="142.57152686607188" width="395.52"><g><svg viewBox="0 0 675.363736298371 243.4456894064368" height="142.57152686607188" width="395.52"><g transform="matrix(1,0,0,1,279.843736298371,83.17800438491602)"><svg viewBox="0 0 395.52 77.08968063660477" height="77.08968063660477" width="395.52"><g id="textblocktransform"><svg viewBox="0 0 395.52 77.08968063660477" height="77.08968063660477" width="395.52" id="textblock"><g><svg viewBox="0 0 395.52 77.08968063660477" height="77.08968063660477" width="395.52"><g transform="matrix(1,0,0,1,0,0)"><svg width="395.52" viewBox="2.43 -36.83 235.6 45.93" height="77.08968063660477" data-palette-color="#54792d"><path d="M33.73-35.83L29.33 0 24.6 0 26.63-16.35 9.15-16.35 7.15 0 2.43 0 6.85-35.83 11.55-35.83 9.58-19.75 27.05-19.75 29.03-35.83 33.73-35.83ZM56.82-19.9L56.82-19.9Q56.82-18.25 56.15-16.86 55.47-15.48 53.67-14.36 51.87-13.25 48.72-12.43 45.57-11.6 40.62-11.1L40.62-11.1Q40.6-10.83 40.6-10.56 40.6-10.3 40.6-10.03L40.6-10.03Q40.6-6.68 42.06-4.91 43.52-3.15 46.47-3.15L46.47-3.15Q47.67-3.15 48.61-3.4 49.55-3.65 50.29-4.01 51.02-4.38 51.59-4.81 52.15-5.25 52.62-5.61 53.1-5.98 53.5-6.23 53.9-6.48 54.3-6.48L54.3-6.48Q54.75-6.48 55.12-6.05L55.12-6.05 56.22-4.67Q54.95-3.35 53.74-2.41 52.52-1.48 51.25-0.85 49.97-0.23 48.59 0.06 47.2 0.35 45.6 0.35L45.6 0.35Q43.42 0.35 41.7-0.38 39.97-1.1 38.77-2.44 37.57-3.78 36.92-5.68 36.27-7.58 36.27-9.93L36.27-9.93Q36.27-11.88 36.69-13.81 37.1-15.75 37.89-17.5 38.67-19.25 39.81-20.75 40.95-22.25 42.41-23.34 43.87-24.43 45.64-25.05 47.4-25.68 49.42-25.68L49.42-25.68Q51.35-25.68 52.75-25.13 54.15-24.58 55.05-23.73 55.95-22.88 56.39-21.85 56.82-20.83 56.82-19.9ZM49.17-22.48L49.17-22.48Q47.6-22.48 46.27-21.83 44.95-21.18 43.92-20.04 42.9-18.9 42.17-17.36 41.45-15.83 41.05-14.05L41.05-14.05Q44.9-14.53 47.22-15.14 49.55-15.75 50.8-16.46 52.05-17.18 52.45-18 52.85-18.82 52.85-19.73L52.85-19.73Q52.85-20.18 52.65-20.66 52.45-21.15 52.01-21.55 51.57-21.95 50.87-22.21 50.17-22.48 49.17-22.48ZM63.97 0L59.62 0 62.67-25.35 64.9-25.35Q65.6-25.35 66-25.03 66.4-24.7 66.4-24.03L66.4-24.03Q66.4-23.93 66.38-23.74 66.37-23.55 66.36-23.35 66.35-23.15 66.33-23 66.32-22.85 66.32-22.83L66.32-22.83 65.97-18.23Q67.6-21.73 69.61-23.63 71.62-25.53 73.85-25.53L73.85-25.53Q74.9-25.53 75.95-25.08L75.95-25.08 75.15-20.8Q73.97-21.28 72.87-21.28L72.87-21.28Q70.45-21.28 68.55-18.91 66.65-16.55 65.37-11.75L65.37-11.75 63.97 0ZM79.74 0L77.37 0 81.82-36.83 86.19-36.83 83.99-18.93Q84.94-20.45 86.04-21.71 87.14-22.98 88.34-23.85 89.54-24.73 90.84-25.21 92.14-25.7 93.49-25.7L93.49-25.7Q96.72-25.7 98.52-23.35 100.32-21 100.32-16.48L100.32-16.48Q100.32-14.43 99.89-12.38 99.47-10.33 98.68-8.46 97.89-6.6 96.78-4.99 95.67-3.38 94.31-2.19 92.94-1 91.34-0.33 89.74 0.35 87.99 0.35L87.99 0.35Q85.97 0.35 84.33-0.5 82.69-1.35 81.64-2.93L81.64-2.93 81.32-1.3Q81.12-0.65 80.81-0.33 80.49 0 79.74 0L79.74 0ZM91.82-22.13L91.82-22.13Q90.62-22.13 89.39-21.38 88.17-20.63 87.03-19.3 85.89-17.98 84.89-16.15 83.89-14.33 83.17-12.15L83.17-12.15 82.37-5.58Q83.32-4.23 84.64-3.66 85.97-3.1 87.34-3.1L87.34-3.1Q88.64-3.1 89.79-3.65 90.94-4.2 91.89-5.14 92.84-6.08 93.59-7.34 94.34-8.6 94.86-10.04 95.37-11.48 95.64-13.01 95.92-14.55 95.92-16.05L95.92-16.05Q95.92-19.03 94.84-20.58 93.77-22.13 91.82-22.13ZM118.62-3.63L118.62-3.63Q120.27-3.63 121.54-3.9 122.82-4.17 123.79-4.58 124.77-4.98 125.45-5.46 126.14-5.95 126.65-6.35 127.17-6.75 127.52-7.03 127.87-7.3 128.14-7.3L128.14-7.3Q128.37-7.3 128.52-7.21 128.67-7.13 128.77-7L128.77-7 130.39-4.98Q128.04-2.43 124.98-1.01 121.92 0.4 117.84 0.4L117.84 0.4Q114.64 0.4 112.09-0.75 109.54-1.9 107.78-3.96 106.02-6.03 105.08-8.88 104.14-11.73 104.14-15.15L104.14-15.15Q104.14-19.83 105.59-23.7 107.04-27.58 109.58-30.36 112.12-33.15 115.54-34.69 118.97-36.23 122.92-36.23L122.92-36.23Q124.82-36.23 126.37-35.9 127.92-35.58 129.19-34.95 130.47-34.33 131.5-33.45 132.54-32.58 133.44-31.5L133.44-31.5 131.84-29.55Q131.64-29.3 131.39-29.14 131.14-28.98 130.77-28.98L130.77-28.98Q130.32-28.98 129.82-29.48 129.32-29.98 128.45-30.56 127.59-31.15 126.23-31.65 124.87-32.15 122.69-32.15L122.69-32.15Q119.79-32.15 117.27-30.99 114.74-29.83 112.89-27.66 111.04-25.5 109.98-22.43 108.92-19.35 108.92-15.53L108.92-15.53Q108.92-12.75 109.64-10.55 110.37-8.35 111.65-6.81 112.94-5.28 114.72-4.45 116.49-3.63 118.62-3.63ZM155.91-24.5L152.89 0 150.59 0Q149.71 0 149.4-0.45 149.09-0.9 149.09-1.55L149.09-1.55 149.54-6.68Q148.64-5.08 147.6-3.78 146.56-2.48 145.4-1.56 144.24-0.65 142.96-0.15 141.69 0.35 140.31 0.35L140.31 0.35Q138.81 0.35 137.59-0.24 136.36-0.83 135.5-1.96 134.64-3.1 134.16-4.76 133.69-6.43 133.69-8.58L133.69-8.58Q133.69-10.83 134.25-12.96 134.81-15.1 135.85-17 136.89-18.9 138.34-20.49 139.79-22.08 141.58-23.24 143.36-24.4 145.41-25.04 147.46-25.68 149.71-25.68L149.71-25.68Q151.34-25.68 152.88-25.41 154.41-25.15 155.91-24.5L155.91-24.5ZM141.99-3.35L141.99-3.35Q143.21-3.35 144.39-4.11 145.56-4.88 146.61-6.23 147.66-7.58 148.58-9.44 149.49-11.3 150.19-13.53L150.19-13.53 151.26-22.23Q150.71-22.35 150.18-22.39 149.64-22.43 149.11-22.43L149.11-22.43Q147.61-22.43 146.21-21.94 144.81-21.45 143.59-20.58 142.36-19.7 141.36-18.49 140.36-17.28 139.65-15.83 138.94-14.38 138.54-12.74 138.14-11.1 138.14-9.38L138.14-9.38Q138.14-3.35 141.99-3.35ZM163.86 0L159.51 0 162.56-25.35 164.79-25.35Q165.49-25.35 165.89-25.03 166.29-24.7 166.29-24.03L166.29-24.03Q166.29-23.93 166.27-23.74 166.26-23.55 166.25-23.35 166.24-23.15 166.22-23 166.21-22.85 166.21-22.83L166.21-22.83 165.86-18.23Q167.49-21.73 169.5-23.63 171.51-25.53 173.74-25.53L173.74-25.53Q174.79-25.53 175.84-25.08L175.84-25.08 175.04-20.8Q173.86-21.28 172.76-21.28L172.76-21.28Q170.34-21.28 168.44-18.91 166.54-16.55 165.26-11.75L165.26-11.75 163.86 0ZM180.71-25.33L185.08-25.33 182.03 0 177.66 0 180.71-25.33ZM186.76-33.27L186.76-33.27Q186.76-32.63 186.5-32.06 186.23-31.5 185.8-31.06 185.36-30.63 184.81-30.38 184.26-30.13 183.66-30.13L183.66-30.13Q183.08-30.13 182.53-30.38 181.98-30.63 181.57-31.06 181.16-31.5 180.91-32.06 180.66-32.63 180.66-33.27L180.66-33.27Q180.66-33.93 180.91-34.5 181.16-35.08 181.58-35.51 182.01-35.95 182.56-36.21 183.11-36.48 183.68-36.48L183.68-36.48Q184.28-36.48 184.83-36.23 185.38-35.98 185.82-35.54 186.26-35.1 186.51-34.51 186.76-33.93 186.76-33.27ZM193.68 0L189.23 0 192.26-25.35 194.48-25.35Q195.98-25.35 195.98-23.85L195.98-23.85 195.61-18.95Q197.63-22.3 200.17-24 202.71-25.7 205.43-25.7L205.43-25.7Q208.26-25.7 209.82-23.8 211.38-21.9 211.38-18.25L211.38-18.25Q211.38-17.75 211.36-17.23 211.33-16.7 211.26-16.13L211.26-16.13 209.36 0 204.91 0 206.81-16.13Q206.86-16.63 206.89-17.09 206.93-17.55 206.93-17.98L206.93-17.98Q206.93-20.03 206.17-21.01 205.41-22 203.78-22L203.78-22Q202.58-22 201.34-21.35 200.11-20.7 198.96-19.51 197.81-18.32 196.82-16.64 195.83-14.95 195.13-12.88L195.13-12.88 193.68 0ZM234.15-18.3L234.15-18.3Q234.13-17.05 233.84-16.05 233.55-15.05 233.13-14.2 232.7-13.35 232.2-12.6 231.7-11.85 231.28-11.1 230.85-10.35 230.57-9.56 230.28-8.78 230.28-7.85L230.28-7.85Q230.28-6.8 230.79-5.95 231.3-5.1 231.92-4.2 232.53-3.3 233.04-2.24 233.55-1.18 233.55 0.28L233.55 0.28Q233.55 2.05 232.73 3.64 231.9 5.23 230.38 6.45 228.85 7.68 226.67 8.39 224.48 9.1 221.75 9.1L221.75 9.1Q219.58 9.1 217.79 8.65 216 8.2 214.74 7.38 213.48 6.55 212.79 5.39 212.1 4.23 212.1 2.83L212.1 2.83Q212.1 0.85 213.13-0.58 214.15-2 215.83-2.93 217.5-3.85 219.64-4.28 221.78-4.7 224-4.7L224-4.7Q224.9-4.7 225.79-4.63 226.68-4.55 227.55-4.42L227.55-4.42Q227.33-4.9 227.19-5.41 227.05-5.93 227.05-6.53L227.05-6.53Q227.05-7.3 227.29-8.13 227.53-8.95 228.08-9.98L228.08-9.98Q227.13-9.33 225.95-8.97 224.78-8.63 223.28-8.63L223.28-8.63Q221.83-8.63 220.57-9.1 219.3-9.58 218.35-10.5 217.4-11.43 216.85-12.81 216.3-14.2 216.3-16.05L216.3-16.05Q216.3-17.85 216.97-19.59 217.63-21.33 218.9-22.69 220.18-24.05 222.05-24.88 223.93-25.7 226.38-25.7L226.38-25.7Q229.13-25.7 231.15-24.4L231.15-24.4 238.03-24.4 237.83-22.93Q237.78-22.5 237.54-22.15 237.3-21.8 236.83-21.73L236.83-21.73 233.68-21.18Q233.9-20.53 234.03-19.81 234.15-19.1 234.15-18.3ZM224.5-11.43L224.5-11.43Q225.85-11.43 226.88-12.01 227.9-12.6 228.62-13.56 229.33-14.53 229.7-15.73 230.08-16.93 230.08-18.15L230.08-18.15Q230.08-20.35 228.97-21.48 227.85-22.6 225.9-22.6L225.9-22.6Q224.55-22.6 223.53-22.05 222.5-21.5 221.8-20.58 221.1-19.65 220.74-18.48 220.38-17.3 220.38-16.03L220.38-16.03Q220.38-13.78 221.47-12.6 222.55-11.43 224.5-11.43ZM229.5 0.63L229.5 0.63Q229.5-0.03 229.38-0.59 229.25-1.15 229.05-1.65L229.05-1.65Q227.7-1.88 226.52-1.98 225.33-2.08 224.28-2.08L224.28-2.08Q222.23-2.08 220.73-1.71 219.23-1.35 218.25-0.75 217.28-0.15 216.8 0.64 216.33 1.43 216.33 2.27L216.33 2.27Q216.33 4.08 217.84 5.03 219.35 5.98 222.13 5.98L222.13 5.98Q223.78 5.98 225.14 5.54 226.5 5.1 227.47 4.38 228.43 3.65 228.97 2.68 229.5 1.7 229.5 0.63Z" opacity="1" transform="matrix(1,0,0,1,0,0)" fill="#54792d" class="wordmark-text-0" data-fill-palette-color="primary" id="text-0"></path></svg></g></svg></g></svg></g></svg></g><g><svg viewBox="0 0 243.4456894064368 243.4456894064368" height="243.4456894064368" width="243.4456894064368"><g><svg></svg></g><g id="icon-0"><svg viewBox="0 0 243.4456894064368 243.4456894064368" height="243.4456894064368" width="243.4456894064368"><g><path d="M0 121.723c0-67.226 54.497-121.723 121.723-121.723 67.226 0 121.723 54.497 121.723 121.723 0 67.226-54.497 121.723-121.723 121.723-67.226 0-121.723-54.497-121.723-121.723zM121.723 236.494c63.386 0 114.771-51.385 114.771-114.771 0-63.386-51.385-114.771-114.771-114.771-63.386 0-114.771 51.385-114.771 114.771 0 63.386 51.385 114.771 114.771 114.771z" data-fill-palette-color="accent" fill="#54792d" stroke="transparent"></path><ellipse rx="120.50561625618622" ry="120.50561625618622" cx="121.7228447032184" cy="121.7228447032184" fill="#54792d" stroke="transparent" stroke-width="0" fill-opacity="1" data-fill-palette-color="accent"></ellipse></g><g transform="matrix(1,0,0,1,86.2809807117347,51.80216088448134)"><svg viewBox="0 0 70.8837279829674 139.84136763747412" height="139.84136763747412" width="70.8837279829674"><g><svg xmlns="http://www.w3.org/2000/svg" xmlns:xlink="http://www.w3.org/1999/xlink" version="1.1" x="0" y="0" viewBox="26.373 3.7210000000000005 46.260000000000005 91.26299999999999" enable-background="new 0 0 100 100" xml:space="preserve" height="139.84136763747412" width="70.8837279829674" class="icon-cg-0" data-fill-palette-color="quaternary" id="cg-0"><path fill="#ffffff" d="M55.84 90.075c-3.396 0-3.903-3.899-3.903-6.225v-1.054c3.932-3.968 20.696-21.883 20.696-38.825 0-17.545-17.998-36.152-21.074-39.203-0.178-0.249-0.396-0.461-0.645-0.628l-0.435-0.419h-1.003c-0.033 0-0.066 0.001-0.099 0.002l-0.879 0.011-0.426 0.419c-0.241 0.165-0.453 0.373-0.627 0.616C44.37 7.82 26.373 26.43 26.373 43.972c0 16.886 16.656 34.741 20.656 38.784v1.095c0 8.217 4.747 11.133 8.812 11.133 1.355 0 2.454-1.099 2.454-2.454S57.195 90.075 55.84 90.075zM31.281 43.972c0-13.896 13.299-29.126 18.222-34.288 4.923 5.161 18.222 20.389 18.222 34.288 0 12.005-9.911 24.99-15.788 31.635v-9.419L59.9 59.1c1.013-0.901 1.103-2.453 0.202-3.466-0.902-1.012-2.452-1.102-3.466-0.201l-4.7 4.184v-5.583l7.964-7.088c1.013-0.901 1.103-2.453 0.202-3.465-0.902-1.013-2.452-1.103-3.465-0.202l-4.701 4.184v-5.585L59.9 34.79c1.012-0.901 1.103-2.453 0.202-3.465-0.9-1.013-2.452-1.104-3.465-0.202l-4.701 4.184V25.44c0-1.355-1.099-2.454-2.454-2.454s-2.454 1.099-2.454 2.454V75.56C41.147 68.9 31.281 55.947 31.281 43.972z" data-fill-palette-color="quaternary"></path></svg></g></svg></g></svg></g></svg></g></svg></g><defs></defs></svg><rect width="395.52" height="142.57152686607188" fill="none" stroke="none" visibility="hidden"></rect></g></svg></g></svg>