<?xml version="1.0" encoding="UTF-8"?>
<svg width="462.52" height="462.55" enable-background="new 0 0 462.52 462.546" viewBox="0 0 462.52 462.546" xmlns="http://www.w3.org/2000/svg">
 <path d="m460 231.56a230 230 0 1 0 -460 0 230 230 0 1 0 460 0" fill="#fff"/>
 <path d="m247.09.664c99.647,5.197 189.38,82.819 209.83,180.26 18.801,81.356-10.646,171.38-74.43,225.42-45.255,39.36-106.07,60.106-165.98,55.591-94.876-3.852-181.74-74.166-207.3-165.36-10.475-33.514-10.445-69.492-6.215-104.01 14.418-87.89 83.555-163.8 170.24-185.04 23.96-5.895 49.21-8.961 73.85-6.856zm35.5,14.186c42.271,20.75 68.405,68.82 62.41,115.59-4.789,55.133-54.945,100.69-110.08,101.68-46.156-1.424-91.676,27.277-108.44,70.59-20.08,47.358-2.724,106.8 39.938,135.72 34.97,25.778 81.759,20.311 121.56,11.352 91.998-22.549 163.13-108.71 168.27-203.23 6.711-85.292-40.25-171.39-115.39-212.21-18.817-10.162-45.538-22.039-63.142-22.283l1.947,1.191 2.92,1.602zm-45,302.63c23.295,4.478 30.344,38.686 10.257,51.65-20.586,16.035-52.913-5.777-44.799-31.188 3.72-14.62 19.91-23.85 34.54-20.46zm-11.68-226.78c-28.562,3.572-29.325,49.348-.806,53.67 22.57,5.914 42.185-22.295 28.877-41.521-5.65-8.564-17.69-15.352-28.07-12.153z"/>
</svg>
